<svg width="24" height="24" viewBox="0 0 24 24" fill="none" xmlns="http://www.w3.org/2000/svg">
<path fill-rule="evenodd" clip-rule="evenodd" d="M12.0435 22.1632C11.8922 22.1703 11.74 22.1739 11.587 22.1739C6.29223 22.1739 2 17.8817 2 12.587C2 7.29223 6.29223 3 11.587 3C16.8817 3 21.1739 7.29223 21.1739 12.587C21.1739 16.0743 19.3119 19.1268 16.5278 20.8043H22.3152C22.6934 20.8043 23 21.1109 23 21.4891C23 21.8673 22.6934 22.1739 22.3152 22.1739H12.0435V22.1632ZM11.5611 10.2526C12.8075 10.2526 13.8179 9.24224 13.8179 7.99587C13.8179 6.7495 12.8075 5.73912 11.5611 5.73912C10.3147 5.73912 9.30435 6.7495 9.30435 7.99587C9.30435 9.24224 10.3147 10.2526 11.5611 10.2526ZM11.587 19.4348C12.8333 19.4348 13.8437 18.4244 13.8437 17.178C13.8437 15.9316 12.8333 14.9213 11.587 14.9213C10.3406 14.9213 9.33021 15.9316 9.33021 17.178C9.33021 18.4244 10.3406 19.4348 11.587 19.4348ZM9.27849 12.5611C9.27849 13.8075 8.26811 14.8178 7.02174 14.8178C5.77537 14.8178 4.76499 13.8075 4.76499 12.5611C4.76499 11.3147 5.77537 10.3043 7.02174 10.3043C8.26811 10.3043 9.27849 11.3147 9.27849 12.5611ZM16.178 14.8437C17.4244 14.8437 18.4348 13.8333 18.4348 12.5869C18.4348 11.3406 17.4244 10.3302 16.178 10.3302C14.9316 10.3302 13.9213 11.3406 13.9213 12.5869C13.9213 13.8333 14.9316 14.8437 16.178 14.8437Z" fill="black"/>
</svg>
